<svg width="1200" height="630" viewBox="0 0 1200 630" fill="none" xmlns="http://www.w3.org/2000/svg"><path fill="#030712" d="M0 0h1200v630H0z"/><path fill="url(#a)" opacity=".4" d="M0 0h1200v630H0z"/><defs><linearGradient id="a" x1="0%" y1="0%" x2="100%" y2="100%"><stop offset="0%" style="stop-color:#1e40af;stop-opacity:1"/><stop offset="100%" style="stop-color:#030712;stop-opacity:1"/></linearGradient><pattern id="b" width="40" height="40" patternUnits="userSpaceOnUse"><path d="M40 0H0v40" stroke="#1f2937"/></pattern></defs><path fill="url(#b)" opacity=".3" d="M0 0h1200v630H0z"/><g stroke="#3b82f6" stroke-width="8.75" stroke-linecap="round"><path d="m102 195-17.5 21 17.5 21m28-42 17.5 21-17.5 21" stroke-linejoin="round"/><path d="m123 188-14 56"/></g><text x="180" y="240" font-family="system-ui, -apple-system, BlinkMacSystemFont, sans-serif" font-size="72" font-weight="700" fill="#fff">Code Search</text><text x="80" y="320" font-family="system-ui, -apple-system, BlinkMacSystemFont, sans-serif" font-size="28" fill="#d1d5db">Search, find, and replace code across all your repos.</text><text x="80" y="360" font-family="system-ui, -apple-system, BlinkMacSystemFont, sans-serif" font-size="28" fill="#d1d5db">Self-hosted or Managed.</text><g transform="translate(80 400)"><rect width="130" height="44" rx="8" fill="#1f2937" stroke="#374151"/><text x="65" y="28" font-family="system-ui, sans-serif" font-size="15" font-weight="500" fill="#f9fafb" text-anchor="middle">Fast Search</text><rect x="155" width="130" height="44" rx="8" fill="#1f2937" stroke="#374151"/><text x="220" y="28" font-family="system-ui, sans-serif" font-size="15" font-weight="500" fill="#f9fafb" text-anchor="middle">Powerful CLI</text><rect x="315" width="130" height="44" rx="8" fill="#1f2937" stroke="#374151"/><text x="380" y="28" font-family="system-ui, sans-serif" font-size="15" font-weight="500" fill="#f9fafb" text-anchor="middle">Bulk Replace</text><rect x="475" width="130" height="44" rx="8" fill="#1f2937" stroke="#374151"/><text x="540" y="28" font-family="system-ui, sans-serif" font-size="15" font-weight="500" fill="#f9fafb" text-anchor="middle">Self-Hosted</text></g><text x="80" y="535" font-family="system-ui, -apple-system, BlinkMacSystemFont, sans-serif" font-size="22" fill="#6b7280">code-search.TechQuests.dev</text><g transform="translate(720 140)"><rect width="420" height="400" rx="12" fill="#111827" stroke="#374151"/><rect width="420" height="44" rx="12" fill="#1f2937"/><path fill="#1f2937" d="M0 32h420v12H0z"/><circle cx="22" cy="22" r="7" fill="#ff5f56"/><circle cx="46" cy="22" r="7" fill="#ffbd2e"/><circle cx="70" cy="22" r="7" fill="#27c93f"/><text x="230" y="27" font-family="SF Mono, Monaco, monospace" font-size="13" fill="#6b7280" text-anchor="middle">Terminal</text><text x="22" y="80" font-family="SF Mono, Monaco, monospace" font-size="14" fill="#27c93f">$</text><text x="38" y="80" font-family="SF Mono, Monaco, monospace" font-size="14" fill="#f9fafb">code-search search handleRequest -n 3</text><text x="22" y="108" font-family="SF Mono, Monaco, monospace" font-size="12" fill="#6b7280">Using config file: ~/.code-search.yaml</text><text x="22" y="144" font-family="SF Mono, Monaco, monospace" font-size="14" fill="#27c93f">myorg/api-gateway</text><text x="188" y="144" font-family="SF Mono, Monaco, monospace" font-size="14" fill="#60a5fa">src/handlers/request.go</text><text x="30" y="168" font-family="SF Mono, Monaco, monospace" font-size="13" fill="#6b7280">42 │</text><text x="72" y="168" font-family="SF Mono, Monaco, monospace" font-size="13" fill="#9ca3af">func </text><text x="112" y="168" font-family="SF Mono, Monaco, monospace" font-size="13" fill="#fbbf24" font-weight="bold">handleRequest</text><text x="220" y="168" font-family="SF Mono, Monaco, monospace" font-size="13" fill="#9ca3af">(ctx context.Context) {</text><text x="22" y="208" font-family="SF Mono, Monaco, monospace" font-size="14" fill="#27c93f">myorg/web-frontend</text><text x="196" y="208" font-family="SF Mono, Monaco, monospace" font-size="14" fill="#60a5fa">lib/api/client.ts</text><text x="30" y="232" font-family="SF Mono, Monaco, monospace" font-size="13" fill="#6b7280">88 │</text><text x="72" y="232" font-family="SF Mono, Monaco, monospace" font-size="13" fill="#c084fc">async </text><text x="120" y="232" font-family="SF Mono, Monaco, monospace" font-size="13" fill="#fbbf24" font-weight="bold">handleRequest</text><text x="228" y="232" font-family="SF Mono, Monaco, monospace" font-size="13" fill="#9ca3af">(req: Request) {</text><text x="22" y="272" font-family="SF Mono, Monaco, monospace" font-size="14" fill="#27c93f">myorg/auth-service</text><text x="192" y="272" font-family="SF Mono, Monaco, monospace" font-size="14" fill="#60a5fa">pkg/http/middleware.go</text><text x="30" y="296" font-family="SF Mono, Monaco, monospace" font-size="13" fill="#6b7280">15 │</text><text x="72" y="296" font-family="SF Mono, Monaco, monospace" font-size="13" fill="#9ca3af">func </text><text x="112" y="296" font-family="SF Mono, Monaco, monospace" font-size="13" fill="#fbbf24" font-weight="bold">handleRequest</text><text x="220" y="296" font-family="SF Mono, Monaco, monospace" font-size="13" fill="#9ca3af">(w http.RespWriter) {</text><text x="22" y="336" font-family="SF Mono, Monaco, monospace" font-size="13" fill="#f9fafb">156 matches</text><text x="110" y="336" font-family="SF Mono, Monaco, monospace" font-size="13" fill="#6b7280">in</text><text x="130" y="336" font-family="SF Mono, Monaco, monospace" font-size="13" fill="#22c55e">1.203ms</text><text x="22" y="372" font-family="SF Mono, Monaco, monospace" font-size="14" fill="#27c93f">$</text><path fill="#27c93f" d="M38 358h10v18H38z"><animate attributeName="opacity" values="1;0;1" dur="1.2s" repeatCount="indefinite"/></path></g></svg>
